<svg width="18" height="18" viewBox="0 0 18 18" fill="none" xmlns="http://www.w3.org/2000/svg">
<path d="M6.32813 3.375V1.125C6.32813 1.01311 6.37257 0.905806 6.45169 0.826689C6.53081 0.747572 6.63811 0.703125 6.75 0.703125C6.86189 0.703125 6.9692 0.747572 7.04831 0.826689C7.12743 0.905806 7.17188 1.01311 7.17188 1.125V3.375C7.17188 3.48689 7.12743 3.59419 7.04831 3.67331C6.9692 3.75243 6.86189 3.79688 6.75 3.79688C6.63811 3.79688 6.53081 3.75243 6.45169 3.67331C6.37257 3.59419 6.32813 3.48689 6.32813 3.375ZM9 3.79688C9.11189 3.79688 9.2192 3.75243 9.29831 3.67331C9.37743 3.59419 9.42188 3.48689 9.42188 3.375V1.125C9.42188 1.01311 9.37743 0.905806 9.29831 0.826689C9.2192 0.747572 9.11189 0.703125 9 0.703125C8.88811 0.703125 8.78081 0.747572 8.70169 0.826689C8.62257 0.905806 8.57813 1.01311 8.57813 1.125V3.375C8.57813 3.48689 8.62257 3.59419 8.70169 3.67331C8.78081 3.75243 8.88811 3.79688 9 3.79688ZM11.25 3.79688C11.3619 3.79688 11.4692 3.75243 11.5483 3.67331C11.6274 3.59419 11.6719 3.48689 11.6719 3.375V1.125C11.6719 1.01311 11.6274 0.905806 11.5483 0.826689C11.4692 0.747572 11.3619 0.703125 11.25 0.703125C11.1381 0.703125 11.0308 0.747572 10.9517 0.826689C10.8726 0.905806 10.8281 1.01311 10.8281 1.125V3.375C10.8281 3.48689 10.8726 3.59419 10.9517 3.67331C11.0308 3.75243 11.1381 3.79688 11.25 3.79688ZM17.6906 7.0875L15.6094 8.64844V12.9375C15.6094 13.4969 15.3871 14.0335 14.9916 14.4291C14.596 14.8246 14.0594 15.0469 13.5 15.0469H4.5C3.94056 15.0469 3.40403 14.8246 3.00845 14.4291C2.61286 14.0335 2.39063 13.4969 2.39063 12.9375V8.64844L0.309377 7.0875C0.219866 7.02037 0.16069 6.92043 0.144867 6.80966C0.129043 6.6989 0.157869 6.58639 0.225002 6.49688C0.292135 6.40736 0.392076 6.34819 0.50284 6.33237C0.613603 6.31654 0.726116 6.34537 0.815627 6.4125L2.39063 7.59375V5.625C2.39063 5.51311 2.43507 5.40581 2.51419 5.32669C2.59331 5.24757 2.70061 5.20312 2.8125 5.20312H15.1875C15.2994 5.20312 15.4067 5.24757 15.4858 5.32669C15.5649 5.40581 15.6094 5.51311 15.6094 5.625V7.59375L17.1844 6.4125C17.2739 6.34537 17.3864 6.31654 17.4972 6.33237C17.6079 6.34819 17.7079 6.40736 17.775 6.49688C17.8421 6.58639 17.871 6.6989 17.8551 6.80966C17.8393 6.92043 17.7801 7.02037 17.6906 7.0875ZM14.7656 6.04688H3.23438V12.9375C3.23438 13.2732 3.36772 13.5951 3.60507 13.8324C3.84242 14.0698 4.16434 14.2031 4.5 14.2031H13.5C13.8357 14.2031 14.1576 14.0698 14.3949 13.8324C14.6323 13.5951 14.7656 13.2732 14.7656 12.9375V6.04688Z" fill="#999999"/>
</svg>
