<svg width="18" height="18" viewBox="0 0 18 18" fill="none" xmlns="http://www.w3.org/2000/svg">
<path d="M12.5156 2.99414C13.6233 2.99548 14.6855 3.43551 15.4688 4.21875C16.252 5.00199 16.692 6.06421 16.6934 7.17188L16.6904 7.36426C16.6124 9.3582 15.3239 11.4188 12.9043 13.4912C11.7501 14.4733 10.5035 15.342 9.18262 16.085L9.18066 16.0859C9.12516 16.1158 9.06303 16.1309 9 16.1309C8.93697 16.1309 8.87484 16.1158 8.81934 16.0859L8.81738 16.085C7.49652 15.342 6.24991 14.4733 5.0957 13.4912C2.59821 11.3521 1.30664 9.22554 1.30664 7.17188L1.31152 6.96484C1.36385 5.93255 1.79692 4.95308 2.53125 4.21875C3.31449 3.43551 4.37671 2.99548 5.48438 2.99414L5.77051 3.00195C7.1318 3.08348 8.30426 3.74723 9 4.81152C9.74403 3.67335 11.0335 2.99414 12.5156 2.99414ZM12.2471 3.76562C10.9197 3.85524 9.82787 4.60831 9.35254 5.76953C9.3238 5.83931 9.2746 5.89939 9.21191 5.94141C9.14922 5.98331 9.07542 6.00586 9 6.00586C8.92458 6.00586 8.85078 5.98331 8.78809 5.94141C8.7254 5.89939 8.6762 5.83931 8.64746 5.76953C8.14043 4.53087 6.93194 3.75586 5.48438 3.75586C4.57884 3.75698 3.71063 4.1175 3.07031 4.75781C2.43 5.39813 2.06948 6.26634 2.06836 7.17188C2.06836 9.16742 3.55035 11.0648 5.18262 12.5459C6.75773 13.9751 8.44954 14.9931 9 15.3105C9.55012 14.9945 11.2421 13.9752 12.8174 12.5449C14.4496 11.0629 15.9316 9.16492 15.9316 7.17188C15.9305 6.26634 15.57 5.39813 14.9297 4.75781C14.2894 4.1175 13.4212 3.75698 12.5156 3.75586L12.2471 3.76562Z" fill="black" stroke="black" stroke-width="0.2"/>
<path d="M12.9068 9.91395C12.7661 9.91395 12.4032 9.95399 12.0586 10.0854C11.9005 10.1456 11.7546 10.1967 11.6136 10.3074C11.4177 10.4611 11.3293 10.8617 11.3693 11.2864C11.3834 11.4356 11.4895 11.4308 11.5808 11.3607C12.0482 11.002 12.2382 10.2622 12.27 9.25018C12.297 8.39363 11.2917 7.61199 10.9662 7.29557C10.8485 7.18123 10.563 7.12296 10.1993 7.13297C9.99356 7.13863 9.87374 7.2437 9.75269 7.36474C9.63165 7.48579 9.56976 7.78794 9.59979 8.18202C9.61743 8.41342 9.81185 8.49782 9.93289 8.56851C9.99182 8.60292 10.0539 8.61917 10.1249 8.58944C10.4944 8.43471 10.6607 7.95419 10.8333 7.54919C11.0489 7.04342 10.8645 6.45615 10.7738 6.34512C10.6832 6.23412 10.401 6.21285 10.0976 6.26291C9.9845 6.28157 9.99448 6.41307 10.0045 6.49468C10.0145 6.57629 10.0345 6.63635 10.0749 6.69733C10.1152 6.75831 10.1753 6.81837 10.2763 6.84932C10.722 6.82019 10.904 6.67822 11.015 6.61785C11.066 6.5775 11.106 6.51743 11.0259 6.3342" stroke="black" stroke-width="2" stroke-linecap="round"/>
<path d="M8.08161 7.65971C8.07381 7.65971 8.06601 7.65971 7.99959 7.90151C7.93318 8.1433 7.80838 8.62689 7.74409 8.90721C7.66614 9.24709 7.6876 9.36882 7.71892 9.47885C7.79315 9.73965 8.04947 9.85738 8.41889 10.0227C8.54692 10.08 8.6406 10.0706 8.71139 10.0667C8.76772 10.0636 8.82969 10.0235 8.90438 9.95688C8.99767 9.87362 9.01121 9.74794 9.02303 9.61475C9.04445 9.37328 8.94905 9.04028 8.79967 8.71387C8.73166 8.56527 8.66589 8.45766 8.53235 8.26101C8.3988 8.06436 8.19601 7.78356 8.03694 7.59211C7.87787 7.40066 7.76867 7.30706 7.61882 7.20035C7.46897 7.09363 7.28177 6.97663 7.08004 6.88126C6.67834 6.69135 6.29474 6.61217 6.02718 6.561C5.85415 6.5279 5.74213 6.52519 5.65952 6.54859C5.57116 6.57361 5.54501 6.8074 5.49773 7.09422C5.41611 7.58945 5.59133 7.81618 5.75666 8.04486C5.86394 8.19324 6.00898 8.28181 6.1619 8.35638C6.39384 8.46948 6.69347 8.5262 6.97651 8.54594C7.22777 8.56346 7.4659 8.50304 7.66656 8.44407C7.96937 8.35508 8.29292 8.01567 8.46723 7.7747C8.51083 7.71443 8.52266 7.58975 8.54239 7.42843C8.56648 7.23151 8.37375 7.07732 8.22413 6.86885C8.10933 6.70889 7.87811 6.54977 7.6421 6.39235C7.47746 6.28254 7.36497 6.24179 7.2514 6.17124C6.7629 5.86777 6.31719 5.88702 6.2581 5.90652C6.11248 5.95457 6.31648 6.24865 6.35607 6.379C6.37179 6.43017 6.39543 6.48548 6.42686 6.54445C6.4427 6.57222 6.4583 6.59562 6.52164 6.64337" stroke="black" stroke-width="2" stroke-linecap="round"/>
<path d="M8.22314 7.32861C8.26994 7.35981 8.31674 7.39101 8.55925 7.50068C8.80175 7.61035 9.23854 7.79755 9.56495 7.91738C10.3811 8.13223 10.5629 8.12443 10.6217 8.11262C10.6572 8.1086 10.704 8.1086 10.7522 8.1086" stroke="black" stroke-width="2" stroke-linecap="round"/>
<path d="M11.2251 6.14693C11.1315 6.11573 11.0521 6.09186 10.8761 6.07614C10.4752 6.04034 10.0995 6.06799 9.83269 6.12283C9.15067 6.26298 8.91728 6.47736 8.79106 6.55241C8.62222 6.65279 8.43652 6.76903 8.38086 6.80862C8.3961 6.81654 8.4507 6.82434 8.51783 6.81276C8.58496 6.80118 8.66295 6.76998 8.74332 6.73783" stroke="black" stroke-width="2" stroke-linecap="round"/>
<path d="M10.894 4.94162C10.8472 4.94162 10.6749 4.93382 10.4387 4.9259C10.327 4.92216 10.2173 5.00402 9.99372 5.19996C9.64196 5.50821 9.42905 5.80764 9.34645 5.92168C9.20979 6.11034 9.01212 6.44439 8.91663 6.73299C8.89296 6.80453 8.90859 6.90151 8.92029 6.95363C8.93199 7.00574 8.95539 7.01354 9.01424 7.00976C9.0731 7.00598 9.1667 6.99038 9.24611 6.97065C9.32553 6.95091 9.38793 6.92751 9.45222 6.9034" stroke="black" stroke-width="2" stroke-linecap="round"/>
<path d="M11.7923 4.7998C11.7767 4.90144 11.7139 5.1222 11.5684 5.61678C11.4695 5.95301 11.4851 6.27965 11.4812 6.51175C11.4768 6.76987 11.3366 7.30048 11.2253 7.65526C11.2136 7.69251 11.1939 7.72215 11.1897 7.74992C11.1856 7.77769 11.1934 7.80109 11.2013 7.79365C11.3338 7.66912 11.2173 7.37659 11.2016 7.05219C11.1881 6.7748 11.1858 6.26759 11.1896 5.99082C11.1938 5.68226 11.2407 5.6273 11.2877 5.56844C11.4255 5.39604 11.5791 5.3751 11.8344 5.29651C12.2202 5.17773 12.4924 5.09951 12.6859 5.07564C12.7299 5.07021 12.7685 5.05224 12.8042 5.0481C12.8399 5.04396 12.8711 5.05176 12.9106 5.09868C13.0125 5.21981 13.1152 5.58499 13.2333 6.0648C13.3235 6.43127 13.3209 6.78333 13.274 7.19566C13.218 7.68724 13.0299 8.06038 12.9237 8.24935C12.8011 8.40782 12.6754 8.6274 12.5805 8.7899C12.5645 8.81767 12.5567 8.84107 12.5487 8.86518" stroke="black" stroke-width="2" stroke-linecap="round"/>
<path d="M12.6198 11.2525C12.5728 11.2837 12.4317 11.4328 12.0558 11.7383C11.7783 11.9639 11.3056 12.309 10.9749 12.5756C10.4512 12.9977 10.2408 13.2452 10.1662 13.3435C10.0406 13.5089 9.97258 13.7097 9.92944 13.852C9.91033 13.915 9.90167 13.986 9.92507 14.0373C9.99278 14.1857 10.1929 13.9002 10.4913 13.6291C10.6336 13.4998 10.8611 13.1618 11.1641 12.6976C11.3682 12.3849 11.4612 12.1906 11.6062 11.8973C11.7206 11.6659 11.8526 11.2373 11.9679 10.9541C12.1409 10.5293 12.2884 10.3392 12.4022 10.1705C12.6946 9.73726 12.7848 9.55164 12.8559 9.42897C12.8719 9.4014 12.8874 9.37011 12.8837 9.38524C12.8393 9.56835 12.746 9.6684 12.6478 9.88065C12.5908 10.0039 12.5179 10.1643 12.4079 10.427C12.1194 11.1159 12.1551 11.3541 12.1039 11.4884C12.0546 11.6179 12.0213 11.764 11.9856 11.9097C11.9321 12.1281 12.0209 12.2213 12.0562 12.2607C12.0732 12.2795 12.0993 12.2844 12.1309 12.2845C12.2019 12.2848 12.3898 12.1596 12.6417 11.9669C12.972 11.714 13.1861 11.2936 13.3284 11.0603C13.4891 10.7968 13.5175 10.6465 13.6514 10.426C13.7312 10.2947 13.7855 10.1893 13.8918 10.0476C13.9956 9.90917 14.0692 9.79556 14.1558 9.66934C14.2364 9.55195 14.2819 9.45662 14.3018 9.20502C14.3139 9.05279 14.3608 8.8818 14.3885 8.74766C14.4331 8.5313 14.3689 8.22944 14.3257 8.03055C14.2934 7.88172 14.2824 7.75484 14.2508 7.66017C14.2151 7.55317 14.1958 7.34593 14.1563 7.16406C14.1253 7.02176 14.0933 6.92758 14.0617 6.83292C14.0293 6.73566 13.9595 6.62835 13.9003 6.50603C13.8518 6.40598 13.7392 6.23505 13.6796 6.07669C13.6317 5.94917 13.5657 5.79353 13.4907 5.67476C13.4235 5.56841 13.345 5.48579 13.2779 5.39113C13.2054 5.28866 13.0774 5.24139 12.9669 5.17049C12.8248 5.07929 12.7385 5.02063 12.6438 4.96556C12.5416 4.90609 12.4548 4.83155 12.3602 4.77648C12.3112 4.74798 12.2655 4.71337 12.2417 4.68193C12.1824 4.60344 12.4539 4.61882 12.627 4.60689C12.6912 4.60247 12.7767 4.58715 12.8869 4.59495C13.035 4.60544 13.1313 4.73653 13.2536 4.80354C13.3666 4.86544 13.4466 4.94925 13.5412 4.99664C13.6514 5.05179 13.7302 5.12274 13.8249 5.18171C13.9316 5.24823 14.0294 5.32743 14.1518 5.42587C14.2384 5.49564 14.3915 5.60255 14.5299 5.71742C14.616 5.78888 14.6601 5.88665 14.7232 5.98132C14.7923 6.08499 14.8572 6.19392 14.8887 6.29638C14.91 6.36546 14.9125 6.70351 14.9164 7.16429C14.92 7.58723 14.9517 8.07676 14.9559 8.21869C14.959 8.32497 14.8969 8.43129 14.7791 8.6556C14.703 8.80045 14.6293 8.90401 14.5348 9.02621C14.3726 9.23587 14.2512 9.27462 14.1487 9.32981C13.9957 9.41223 13.9202 9.48735 13.8256 9.57007C13.7334 9.65068 13.5506 9.74687 13.361 9.87332C13.237 9.95605 13.1403 10.031 12.8887 10.1961C12.6726 10.3378 12.4312 10.5117 12.27 10.5824C11.9685 10.7146 11.5827 11.0067 11.3166 11.1732C11.1703 11.2647 11.0289 11.3702 10.8213 11.5113C10.6728 11.6123 10.4188 11.746 10.1927 11.8534C9.55589 12.156 9.45283 12.1584 9.43687 12.1625C9.31213 12.1939 9.6412 11.9233 9.91964 11.4955C10.0685 11.2667 10.2988 10.8743 10.4427 10.6461C10.7493 10.16 10.9492 9.8036 11.0514 9.64204C11.2171 9.38027 11.335 9.25997 11.4534 9.12182C11.5083 9.05776 11.5245 8.98367 11.5247 8.95211C11.5258 8.80717 11.2418 9.0775 11.1076 9.16826C10.9892 9.23539 10.8793 9.29826 10.706 9.35747C10.6585 9.3694 10.6117 9.3772 10.5635 9.38524" stroke="black" stroke-width="2" stroke-linecap="round"/>
<path d="M8.83801 7.73063C8.80658 7.61292 8.58794 7.11231 8.3894 6.77007C8.28256 6.58589 8.12941 6.39993 8.02293 6.26958C7.95013 6.18045 7.88501 6.07659 7.82581 5.96231C7.77467 5.86361 7.69593 5.76932 7.63282 5.67466C7.56453 5.57223 7.44397 5.45449 7.36502 5.34766C7.28825 5.24376 7.16034 5.21766 7.06567 5.15845C6.97444 5.10139 6.87671 5.02857 6.77814 4.98508C6.65069 4.92884 6.5458 4.85508 6.43944 4.81963C6.27147 4.76364 6.12839 4.73691 6.00608 4.70535C5.89854 4.67761 5.78945 4.64236 5.67517 4.63043C5.38243 4.59985 4.87569 4.64189 4.75337 4.66186C4.65226 4.67837 4.56039 4.72083 4.44611 4.75629C4.33225 4.79161 4.17512 4.96428 4.02066 5.07915C3.90572 5.16463 3.74117 5.26399 3.63457 5.34707C3.52316 5.43389 3.42586 5.49278 3.37434 5.57941C3.30841 5.69025 3.19754 5.83125 3.11836 5.93785C3.04259 6.03985 3.03162 6.14655 3.01968 6.26083C3.00904 6.36273 2.96071 6.45382 2.92916 6.55238C2.85587 6.78131 2.8898 7.15486 2.88567 7.51259C2.88385 7.66971 2.94464 7.79303 2.97619 7.91534C3.00273 8.01821 3.09402 8.13953 3.16126 8.25026C3.21711 8.34224 3.29114 8.45483 3.45234 8.71837C3.54026 8.86213 3.62961 8.97482 3.72829 9.11262C3.92131 9.38216 4.03142 9.54965 4.13021 9.67232C4.21341 9.77562 4.26021 9.88102 4.40569 10.0699C4.49276 10.1829 4.58308 10.2984 4.68164 10.4207C4.78404 10.5478 4.93762 10.6137 5.08723 10.7084C5.19111 10.7741 5.26852 10.8581 5.3828 10.9448C5.48757 11.0242 5.57579 11.0945 5.64693 11.1811C5.74979 11.3064 5.92229 11.4802 5.98965 11.5868C6.07599 11.7234 6.21395 11.7799 6.35175 11.9019C6.47062 12.0071 6.59213 12.1184 6.68679 12.2172C6.77461 12.3088 6.8994 12.402 7.05681 12.5597C7.17747 12.6805 7.38724 12.7958 7.51405 12.883C7.6115 12.95 7.79661 13.095 8.16699 13.3511C8.36751 13.4898 8.483 13.5763 8.57766 13.6236C8.68736 13.6786 8.743 13.8046 8.83766 13.8992C8.86141 13.923 8.88481 13.9464 8.90077 13.9702C8.91672 13.9939 8.92452 14.0173 8.93256 14.0414" stroke="black" stroke-width="2" stroke-linecap="round"/>
<path d="M9.31052 14.7504C9.29492 14.7504 9.25568 14.7504 9.19671 14.7465C9.0685 14.738 8.97205 14.5306 8.88932 14.4198C8.81707 14.3231 8.75129 14.2309 8.6727 14.1166C8.59197 13.9992 8.49933 13.8844 8.33814 13.6993C8.23782 13.5841 8.16843 13.4981 8.10532 13.3996C8.02914 13.2806 7.94011 13.1516 7.85726 13.0333C7.73544 12.8594 7.67208 12.7654 7.56583 12.6473C7.45543 12.5244 7.34921 12.4421 7.24285 12.3714C7.06843 12.2555 6.99467 12.1665 6.87649 12.0838C6.75624 11.9996 6.60893 11.9145 6.45896 11.8003C6.34113 11.7105 6.17592 11.6073 6.04522 11.5165C5.91865 11.4286 5.80484 11.3236 5.30636 10.9348C4.99716 10.6937 4.94591 10.52 4.87524 10.4059C4.7399 10.1872 4.63108 10.0553 4.47757 9.7957C4.33617 9.55656 4.07186 9.27535 3.96916 9.13342C3.88034 9.01067 3.79579 8.82674 3.71696 8.60197C3.64643 8.40085 3.65374 8.30605 3.64192 8.00126C3.63162 7.73564 3.6379 7.24408 3.6496 6.97924C3.66636 6.59975 3.87379 6.45465 4.00367 6.34438C4.21823 6.16222 4.3309 6.00556 4.40181 5.9148C4.48796 5.80453 4.60674 5.77677 4.65389 5.75703C4.67613 5.74772 4.70104 5.7607 4.717 5.77641C4.80557 5.86368 4.91377 6.02022 5.00063 6.18957C5.03986 6.26605 5.05582 6.37476 5.11467 6.5668C5.29784 7.16447 5.27634 7.49273 5.31983 7.64731C5.36517 7.80847 5.39452 7.95032 5.46141 8.18999C5.55245 8.51619 5.65452 8.78562 5.71349 8.89186C5.82844 9.09897 6.10265 9.44648 6.28843 9.63261C6.53209 9.87674 6.8434 10.1485 7.06428 10.2905C7.18187 10.3661 7.49575 10.5966 7.91706 10.8722C8.19665 11.0551 8.31734 11.1572 8.43162 11.2441C8.54098 11.3272 8.71111 11.4016 8.80199 11.4922C8.93211 11.591 9.00301 11.6224 9.02287 11.6538C9.01932 11.6697 8.98812 11.6853 8.95598 11.7013" stroke="black" stroke-width="2" stroke-linecap="round"/>
<path d="M7.75083 14.0651C7.74303 14.0729 7.73523 14.0807 7.71951 14.0808C7.63152 14.0814 7.59342 13.9473 7.50703 13.8136C7.3658 13.5949 7.24691 13.4746 7.17601 13.3761C7.08627 13.2513 7.01055 13.1674 6.94745 13.0727C6.88184 12.9743 6.81343 12.8837 6.64065 12.691C6.47512 12.5063 6.23861 12.2848 6.14784 12.2178C6.05798 12.1514 5.90061 11.9785 5.76187 11.8672C5.66276 11.7876 5.55316 11.7804 5.43108 11.7136C5.27427 11.6279 5.2303 11.4736 5.15112 11.3513C5.08746 11.253 5.02514 11.1583 4.93851 11.0715C4.86584 10.9986 4.74198 10.8908 4.63125 10.8193C4.52776 10.7524 4.45788 10.662 4.37905 10.5477C4.31095 10.449 4.22955 10.3155 4.14269 10.2128C4.07433 10.1319 4.03243 10.0238 3.98504 9.92523C3.92484 9.80002 3.82774 9.66972 3.74088 9.55095C3.69349 9.45629 3.65402 9.38538 3.6422 9.24463C3.63818 9.12728 3.63818 8.91668 3.63818 8.69971" stroke="black" stroke-width="2" stroke-linecap="round"/>
</svg>
