<svg width="18" height="18" viewBox="0 0 18 18" fill="none" xmlns="http://www.w3.org/2000/svg">
<path d="M14 15H8V11H7V15H4V11H3V15C3 15.2652 3.10536 15.5196 3.29289 15.7071C3.48043 15.8946 3.73478 16 4 16H14C14.2652 16 14.5196 15.8946 14.7071 15.7071C14.8946 15.5196 15 15.2652 15 15V11H14V15Z" fill="black"/>
<path d="M16.895 6.635L14.855 2.555C14.7722 2.38839 14.6446 2.24819 14.4865 2.15014C14.3284 2.05209 14.146 2.0001 13.96 2H4.04001C3.85397 2.0001 3.67164 2.05209 3.51353 2.15014C3.35542 2.24819 3.2278 2.38839 3.14501 2.555L1.10501 6.635C1.03536 6.77475 0.999396 6.92886 1.00001 7.085V8.625C0.999551 8.85865 1.08093 9.08509 1.23001 9.265C1.45034 9.51757 1.72246 9.71974 2.02787 9.85778C2.33329 9.99582 2.66485 10.0665 3.00001 10.065C3.54689 10.0659 4.0771 9.87674 4.50001 9.53C4.92291 9.87694 5.453 10.0666 6.00001 10.0666C6.54701 10.0666 7.0771 9.87694 7.50001 9.53C7.92291 9.87694 8.453 10.0666 9.00001 10.0666C9.54701 10.0666 10.0771 9.87694 10.5 9.53C10.9229 9.87694 11.453 10.0666 12 10.0666C12.547 10.0666 13.0771 9.87694 13.5 9.53C13.9721 9.91761 14.5761 10.1071 15.185 10.0586C15.7938 10.0101 16.3602 9.72744 16.765 9.27C16.9159 9.09078 16.9991 8.86427 17 8.63V7.085C17.0006 6.92886 16.9647 6.77475 16.895 6.635ZM15 9.065C14.7864 9.0645 14.5761 9.01296 14.3865 8.91468C14.1969 8.8164 14.0335 8.67422 13.91 8.5L13.5 7.94L13.095 8.5C12.9691 8.67155 12.8047 8.81105 12.6149 8.9072C12.4251 9.00335 12.2153 9.05346 12.0025 9.05346C11.7897 9.05346 11.58 9.00335 11.3902 8.9072C11.2004 8.81105 11.0359 8.67155 10.91 8.5L10.5 7.94L10.095 8.5C9.96915 8.67155 9.80466 8.81105 9.61485 8.9072C9.42505 9.00335 9.21527 9.05346 9.00251 9.05346C8.78974 9.05346 8.57996 9.00335 8.39016 8.9072C8.20036 8.81105 8.03587 8.67155 7.91001 8.5L7.50001 7.94L7.09501 8.5C6.96915 8.67155 6.80466 8.81105 6.61485 8.9072C6.42505 9.00335 6.21528 9.05346 6.00251 9.05346C5.78974 9.05346 5.57996 9.00335 5.39016 8.9072C5.20036 8.81105 5.03587 8.67155 4.91001 8.5L4.50001 7.94L4.09001 8.5C3.96649 8.67422 3.80313 8.8164 3.61352 8.91468C3.42392 9.01296 3.21357 9.0645 3.00001 9.065C2.81158 9.06729 2.62484 9.02921 2.45235 8.95331C2.27986 8.87742 2.12562 8.76547 2.00001 8.625V7.085L4.04001 3H13.96L16 7.08V8.61C15.8751 8.75244 15.7214 8.86669 15.549 8.94514C15.3766 9.02359 15.1894 9.06445 15 9.065Z" fill="black"/>
<path d="M4.76642 3.89064C4.71054 3.9814 4.65466 4.07929 4.58817 4.28853C4.50416 4.55288 4.49332 4.76561 4.50372 4.84586C4.53536 5.09007 4.73785 5.26959 4.85003 5.45152C4.95968 5.62934 5.12313 5.80865 5.235 5.9349C5.3323 6.04473 5.51492 6.05444 5.64433 6.04751C5.78327 6.04006 5.87226 5.91495 6.07509 5.65991C6.26852 5.41671 6.2857 5.04817 6.29652 4.80857C6.30195 4.68819 6.20965 4.48012 6.09379 4.32172C6.01482 4.21375 5.90126 4.115 5.79622 4.05545C5.67949 3.98926 5.51681 3.9398 5.3726 3.91175C5.30611 3.89882 5.20821 3.89064 5.10674 3.90104C5.00293 3.91168 4.99078 4.07215 4.97996 4.33779C4.97395 4.48542 5.1162 4.59062 5.17218 4.62224C5.20086 4.63843 5.20758 4.49377 5.20065 4.32949C5.18784 4.02589 4.86473 3.81417 4.73197 3.70546C4.58924 3.58859 4.40971 3.51965 4.3221 3.49507C4.29819 3.48836 4.2698 3.4915 4.23818 3.51576C4.07279 3.64269 4.00342 3.81291 3.95079 3.91133C3.90841 3.9906 3.89124 4.07929 3.84575 4.18086C3.80765 4.26595 3.7862 4.35239 3.75469 4.43653C3.71999 4.52918 3.70217 4.62549 3.67412 4.73053C3.64429 4.84225 3.61814 4.94061 3.59009 5.04218C3.56205 5.14375 3.52024 5.26959 3.46068 5.38177C3.39776 5.50029 3.33117 5.60571 3.29598 5.69699C3.26438 5.77896 3.19798 5.84394 3.18737 6.03269C3.18053 6.15441 3.14882 6.27796 3.11048 6.36924C3.07568 6.45211 3.05093 6.5372 3.00545 6.62133C2.96144 6.70274 2.92488 6.78929 2.87247 6.87342C2.8157 6.96455 2.79169 7.34641 2.77426 7.60848C2.76163 7.79825 2.72867 7.95102 2.76701 8.07086C2.79431 8.15621 2.89631 8.20395 2.98045 8.25657C3.06218 8.30769 3.18328 8.31613 3.29199 8.33724C3.31622 8.34195 3.33747 8.33041 3.35165 8.31298C3.41695 8.23268 3.46352 8.12076 3.54419 8.02601C3.62298 7.93347 3.66687 7.82665 3.69492 7.7005C3.71999 7.58772 3.76477 7.44851 3.8592 7.31889C3.97743 7.15661 4.11476 6.91659 4.15709 6.77616C4.18608 6.67998 4.20593 6.56619 4.26202 6.47491C4.27531 6.45329 4.28996 6.433 4.31444 6.43961C4.46505 6.48034 4.54164 6.73929 4.64006 6.91176C4.70619 7.02765 4.75928 7.1044 4.80822 7.20598C4.85342 7.29976 4.92019 7.3775 4.98322 7.46511C5.09224 7.61665 5.32606 7.69262 5.43478 7.75585C5.52477 7.8082 5.62017 7.85396 5.72889 7.882C5.82278 7.90623 5.92142 7.91698 6.00556 7.94503C6.12003 7.98318 6.27855 7.93841 6.35576 7.89629C6.37323 7.88676 6.37687 7.86152 6.34925 7.85081C6.17949 7.78497 6.05545 7.87497 5.9293 7.90301C5.81312 7.92884 5.71219 8.04303 5.60715 8.12685C5.51274 8.20219 5.45988 8.26004 5.42837 8.30542C5.41308 8.32744 5.41766 8.35772 5.42806 8.37548C5.47177 8.45009 5.59916 8.46318 5.69738 8.48776C5.81348 8.51682 5.95588 8.51234 6.11385 8.4636C6.31885 8.40036 6.48821 8.20479 6.59031 8.13095C6.69875 8.05251 6.77602 7.90354 6.83547 7.79503C6.89564 7.68521 6.8882 7.39431 6.86383 7.18928C6.84995 7.07247 6.76929 7.00021 6.74125 6.91607C6.70901 6.81937 6.6714 6.6645 6.63968 6.53804C6.63277 6.51051 6.63611 6.48216 6.6569 6.47134C6.76975 6.41263 6.85291 6.5582 6.98904 6.6353C7.11111 6.70444 7.23083 6.78236 7.37022 6.88687C7.78127 7.19508 7.92388 7.33549 8.03627 7.43706C8.15582 7.5451 8.28143 7.72749 8.38279 7.8257C8.50571 7.9448 8.5894 8.01488 8.67354 8.0675C8.752 8.11658 8.8415 8.14807 9.18718 8.14481C9.28762 8.14387 9.31795 8.07139 9.34589 8.02601C9.41039 7.92126 9.40198 7.7985 9.39873 7.54704C9.39556 7.3022 9.22048 7.09138 9.12237 6.96176C9.03605 6.84771 8.9125 6.73425 8.82826 6.62564C8.66444 6.41442 8.49949 6.23006 8.3871 6.12135C8.2363 5.97548 7.96715 5.79562 7.86548 5.69079C7.72564 5.54662 7.61002 5.45278 7.50824 5.3615C7.42723 5.28885 7.36465 5.15867 7.27716 5.04995C7.20464 4.95985 7.0571 4.82969 6.92013 4.66152C6.84247 4.56617 6.7903 4.47928 6.72392 4.39514C6.65403 4.30657 6.58737 4.20618 6.51384 4.10461C6.44598 4.01087 6.36343 3.9398 6.27929 3.89085C6.19189 3.84 6.11133 3.79275 6.00629 3.74726C5.90344 3.70273 5.81722 3.6667 5.69822 3.60032C5.66912 3.58409 5.64916 3.5688 5.64885 3.55819C5.64853 3.54759 5.66933 3.54065 6.23811 3.53708C6.8069 3.53351 7.92304 3.53351 8.51189 3.53004C9.12854 3.52641 9.19863 3.50557 9.27205 3.4916C9.32554 3.48142 9.39463 3.45662 9.79052 3.43561C10.1375 3.4172 10.7826 3.42847 11.1251 3.42501C11.5383 3.42082 11.6286 3.37952 11.9827 3.36902C12.302 3.35955 12.9052 3.36545 13.2125 3.37585C13.5197 3.38625 13.5128 3.40704 13.4884 3.43856C13.37 3.59164 13.2334 3.69401 13.0895 3.76785C12.9706 3.82884 12.6817 3.94568 12.3968 4.06879C12.1607 4.17083 11.8267 4.24021 11.5503 4.32771C11.3947 4.37698 11.2378 4.40848 10.9763 4.48873C10.6137 4.59998 10.2856 4.66772 10.0967 4.70963C9.88819 4.7559 9.73895 4.81456 9.10703 5.02075C8.80412 5.11959 8.56966 5.21371 8.32828 5.28734C8.05422 5.37094 7.82136 5.43765 7.67966 5.49406C7.66504 5.49988 7.67935 5.52882 7.69679 5.543C7.73547 5.57446 7.84678 5.5574 8.04551 5.50866C8.33946 5.43657 8.58205 5.34732 8.73572 5.31245C9.03456 5.24463 9.21249 5.1864 9.32467 5.16865C9.38082 5.15976 9.50618 5.13724 9.6775 5.11623C9.79958 5.10126 10.0583 5.06056 10.5536 4.93157C10.8424 4.85637 11.2015 4.74019 11.4149 4.67959C11.7868 4.574 12.0267 4.51415 12.1817 4.4755C12.3292 4.43872 12.4897 4.34609 12.71 4.29C12.8685 4.24962 13.188 4.16458 13.5989 4.07646C13.7969 4.03399 13.9321 3.98896 14.0688 3.95724C14.0999 3.95002 14.1283 3.95367 14.1357 3.96753C14.1865 4.06333 14.08 4.23979 14.0345 4.45712C14.0096 4.57588 13.8913 4.68137 13.7481 4.78988C13.4041 5.05033 13.2893 5.12968 13.0967 5.26266C12.9572 5.35903 12.8061 5.42379 12.652 5.45561C12.4488 5.49758 12.3578 5.59185 12.2107 5.65508C12.0421 5.72759 11.7838 5.76705 11.6399 5.80571C11.5072 5.84135 11.3843 5.87923 11.262 5.92114C10.9755 6.01935 10.8385 6.0683 10.6702 6.11378C10.4955 6.16102 10.3549 6.22922 10.2708 6.28531C10.1689 6.35321 10.0606 6.40443 10.0256 6.43583C9.99303 6.46507 9.99734 6.54413 10.0112 6.63152C10.0342 6.77624 10.207 6.79643 10.312 6.86996C10.4112 6.93934 10.5011 6.9855 10.5852 7.02415C10.6754 7.06556 10.7671 7.14642 10.8583 7.22362C10.9302 7.28438 11.0263 7.32162 11.1662 7.41605C11.2856 7.49666 11.4389 7.5943 11.5516 7.65785C11.6432 7.70951 11.6988 7.74892 11.7164 7.77686C11.7681 7.85876 11.5175 7.84682 11.3913 7.882C11.2749 7.91448 11.1183 7.91698 11.027 7.96246C11.0059 7.973 10.9851 7.98001 10.9813 7.99398C10.953 8.09856 11.1385 8.21067 11.2189 8.29502C11.2932 8.37287 11.4044 8.35814 11.5163 8.38272C11.7356 8.4309 11.8246 8.35142 11.9122 8.31644C12.1608 8.21717 12.4687 7.93841 12.5809 7.84755C12.7305 7.72637 12.7561 7.54683 12.8087 7.38549C12.8465 7.26964 12.8611 7.1544 12.8719 6.90273C12.8778 6.76682 12.8334 6.64349 12.8438 6.52091C12.8472 6.48032 12.875 6.48846 12.9204 6.51629C13.1368 6.64906 13.2111 6.775 13.3022 6.89422C13.438 7.07206 13.4913 7.18129 13.5578 7.2899C13.666 7.46656 13.7296 7.54557 13.796 7.6297C13.8591 7.70974 13.9186 7.77665 13.9711 7.85385C14.024 7.93189 14.1493 7.959 14.237 8.01845C14.3626 8.1036 14.4716 8.06404 14.7684 8.05731C14.9333 8.05358 14.9758 7.88253 15.0425 7.80186C15.0583 7.78268 15.0808 7.77035 15.0984 7.75281C15.2274 7.62464 15.1581 8.4281 15.1895 8.45615C15.3608 8.60911 15.2354 7.74262 15.1899 7.57813C15.1579 7.46228 15.1304 7.37834 15.0745 7.28034C14.9792 7.11318 14.83 6.93802 14.7384 6.7832C14.6463 6.62751 14.5493 6.52417 14.3468 6.23763C14.2426 6.09019 14.1922 6.01284 14.1221 5.92871C14.0637 5.85863 14.0451 5.76075 14.0065 5.65918C13.9969 5.63411 13.9821 5.6137 13.9784 5.59258C13.9747 5.57147 13.9817 5.55067 13.9956 5.53649C14.0242 5.50752 14.0726 5.49437 14.1076 5.46297C14.1778 5.39996 14.1846 5.27757 14.2267 5.21077C14.2681 5.14511 14.3455 5.35362 14.3913 5.4449C14.4385 5.53886 14.5136 5.63386 14.5628 5.718C14.6182 5.81248 14.6749 5.88596 14.7378 5.93869C14.759 5.98385 14.78 6.04015 14.8079 6.09257C14.822 6.11725 14.8358 6.13805 14.8501 6.15948" stroke="black" stroke-width="2" stroke-linecap="round"/>
</svg>
