<svg width="18" height="18" viewBox="0 0 18 18" fill="none" xmlns="http://www.w3.org/2000/svg">
<path d="M12.5156 2.99414C13.6233 2.99548 14.6855 3.43551 15.4688 4.21875C16.252 5.00199 16.692 6.06421 16.6934 7.17188L16.6904 7.36426C16.6124 9.3582 15.3239 11.4188 12.9043 13.4912C11.7501 14.4733 10.5035 15.342 9.18262 16.085L9.18066 16.0859C9.12516 16.1158 9.06303 16.1309 9 16.1309C8.93697 16.1309 8.87484 16.1158 8.81934 16.0859L8.81738 16.085C7.49652 15.342 6.24991 14.4733 5.0957 13.4912C2.59821 11.3521 1.30664 9.22554 1.30664 7.17188L1.31152 6.96484C1.36386 5.93255 1.79692 4.95308 2.53125 4.21875C3.31449 3.43551 4.37671 2.99548 5.48438 2.99414L5.77051 3.00195C7.1318 3.08348 8.30426 3.74723 9 4.81152C9.74403 3.67335 11.0335 2.99414 12.5156 2.99414ZM12.2471 3.76562C10.9197 3.85524 9.82787 4.60831 9.35254 5.76953C9.3238 5.83931 9.2746 5.89939 9.21191 5.94141C9.14922 5.98331 9.07542 6.00586 9 6.00586C8.92458 6.00586 8.85078 5.98331 8.78809 5.94141C8.7254 5.89939 8.6762 5.83931 8.64746 5.76953C8.14043 4.53087 6.93194 3.75586 5.48438 3.75586C4.57884 3.75698 3.71063 4.1175 3.07031 4.75781C2.43 5.39813 2.06948 6.26634 2.06836 7.17188C2.06836 9.16742 3.55035 11.0648 5.18262 12.5459C6.75773 13.9751 8.44954 14.9932 9 15.3105C9.55012 14.9945 11.2421 13.9752 12.8174 12.5449C14.4496 11.0629 15.9316 9.16492 15.9316 7.17188C15.9305 6.26634 15.57 5.39813 14.9297 4.75781C14.2894 4.1175 13.4212 3.75698 12.5156 3.75586L12.2471 3.76562Z" fill="#999999" stroke="#999999" stroke-width="0.2"/>
</svg>
