<svg width="18" height="18" viewBox="0 0 18 18" fill="none" xmlns="http://www.w3.org/2000/svg">
<path d="M6.32813 3.375V1.125C6.32813 1.01311 6.37257 0.905806 6.45169 0.826689C6.53081 0.747572 6.63811 0.703125 6.75 0.703125C6.86189 0.703125 6.9692 0.747572 7.04831 0.826689C7.12743 0.905806 7.17188 1.01311 7.17188 1.125V3.375C7.17188 3.48689 7.12743 3.59419 7.04831 3.67331C6.9692 3.75243 6.86189 3.79688 6.75 3.79688C6.63811 3.79688 6.53081 3.75243 6.45169 3.67331C6.37257 3.59419 6.32813 3.48689 6.32813 3.375ZM9 3.79688C9.11189 3.79688 9.2192 3.75243 9.29831 3.67331C9.37743 3.59419 9.42188 3.48689 9.42188 3.375V1.125C9.42188 1.01311 9.37743 0.905806 9.29831 0.826689C9.2192 0.747572 9.11189 0.703125 9 0.703125C8.88811 0.703125 8.78081 0.747572 8.70169 0.826689C8.62257 0.905806 8.57813 1.01311 8.57813 1.125V3.375C8.57813 3.48689 8.62257 3.59419 8.70169 3.67331C8.78081 3.75243 8.88811 3.79688 9 3.79688ZM11.25 3.79688C11.3619 3.79688 11.4692 3.75243 11.5483 3.67331C11.6274 3.59419 11.6719 3.48689 11.6719 3.375V1.125C11.6719 1.01311 11.6274 0.905806 11.5483 0.826689C11.4692 0.747572 11.3619 0.703125 11.25 0.703125C11.1381 0.703125 11.0308 0.747572 10.9517 0.826689C10.8726 0.905806 10.8281 1.01311 10.8281 1.125V3.375C10.8281 3.48689 10.8726 3.59419 10.9517 3.67331C11.0308 3.75243 11.1381 3.79688 11.25 3.79688ZM17.6906 7.0875L15.6094 8.64844V12.9375C15.6094 13.4969 15.3871 14.0335 14.9916 14.4291C14.596 14.8246 14.0594 15.0469 13.5 15.0469H4.5C3.94056 15.0469 3.40403 14.8246 3.00845 14.4291C2.61286 14.0335 2.39063 13.4969 2.39063 12.9375V8.64844L0.309377 7.0875C0.219866 7.02037 0.16069 6.92043 0.144867 6.80966C0.129043 6.6989 0.157869 6.58639 0.225002 6.49688C0.292135 6.40736 0.392076 6.34819 0.50284 6.33237C0.613603 6.31654 0.726116 6.34537 0.815627 6.4125L2.39063 7.59375V5.625C2.39063 5.51311 2.43507 5.40581 2.51419 5.32669C2.59331 5.24757 2.70061 5.20312 2.8125 5.20312H15.1875C15.2994 5.20312 15.4067 5.24757 15.4858 5.32669C15.5649 5.40581 15.6094 5.51311 15.6094 5.625V7.59375L17.1844 6.4125C17.2739 6.34537 17.3864 6.31654 17.4972 6.33237C17.6079 6.34819 17.7079 6.40736 17.775 6.49688C17.8421 6.58639 17.871 6.6989 17.8551 6.80966C17.8393 6.92043 17.7801 7.02037 17.6906 7.0875ZM14.7656 6.04688H3.23438V12.9375C3.23438 13.2732 3.36772 13.5951 3.60507 13.8324C3.84242 14.0698 4.16434 14.2031 4.5 14.2031H13.5C13.8357 14.2031 14.1576 14.0698 14.3949 13.8324C14.6323 13.5951 14.7656 13.2732 14.7656 12.9375V6.04688Z" fill="black"/>
<path d="M3.64893 6.96573C3.67083 6.96573 3.69274 6.96573 4.24069 6.96573C4.78864 6.96573 5.86198 6.96573 6.43682 6.95843C7.0558 6.95057 7.14441 6.91418 7.23269 6.90312C7.32037 6.89213 7.40262 6.89205 8.04207 6.88099C8.64493 6.87056 9.81326 6.87723 10.4333 6.87358C11.0534 6.86993 11.0899 6.86262 11.1197 6.85521C11.1495 6.8478 11.1714 6.8405 11.5404 6.83674C11.9095 6.83298 12.6251 6.83298 13.0046 6.82933C13.575 6.82384 13.9004 6.85466 14.0366 6.86993C14.0707 6.87375 14.092 6.84802 14.1069 6.82955C14.1219 6.81107 14.1292 6.78917 14.1256 6.78883C14.026 6.77949 14.0482 7.02415 14.0115 7.16066C13.9815 7.27226 13.9672 7.37816 13.9304 7.53659C13.8756 7.77237 13.8345 7.87246 13.8233 8.08963C13.8169 8.2144 13.7681 8.31498 13.7642 8.93617C13.763 9.13554 13.8048 9.47041 13.7865 9.76723C13.7554 10.2688 13.8269 10.4165 13.8453 10.849C13.8599 11.1922 13.8491 11.8569 13.8454 12.2102C13.8411 12.6306 13.7464 12.7619 13.6576 12.8914C13.6013 12.9735 13.5176 13.0354 13.429 13.1128C13.3503 13.1816 13.2521 13.2124 13.1634 13.2751C13.147 13.2867 13.1702 13.3155 13.1924 13.3341C13.2822 13.4095 13.5592 13.4044 13.7381 13.3604C13.84 13.3353 13.8783 13.2057 13.9117 13.1135C13.9483 13.0122 13.9668 12.9035 13.9782 12.7853C13.992 12.6421 13.8862 12.4539 13.8199 12.2586C13.6751 11.8327 13.665 11.5989 13.5508 11.2741C13.4672 11.0363 13.4145 10.7219 13.3551 10.4661C13.3099 10.2716 13.2154 10.028 13.057 9.46112C12.9577 9.10606 12.8534 8.90575 12.8388 8.79944C12.7888 8.43543 12.7428 8.27958 12.706 8.06927C12.6939 7.99989 12.6985 7.90432 12.6985 7.87733C12.6985 7.86051 12.7058 7.98309 12.7169 8.14074C12.7376 8.43642 12.7279 8.6763 12.739 9.02756C12.7485 9.32757 12.7428 9.87532 12.761 10.2268C12.7866 10.7194 12.868 10.8818 12.9011 10.9698C13.0131 11.2676 12.9862 11.529 12.9678 11.737C12.9509 11.9286 12.9273 12.0322 12.9014 12.1573C12.8445 12.4324 12.8463 12.5703 12.8129 12.7033C12.7766 12.8477 12.7503 12.9393 12.7207 13.028C12.689 13.1232 12.6472 13.2416 12.6174 13.3377C12.6042 13.3804 12.6394 13.4263 12.6286 13.4595C12.5885 13.5822 12.3821 13.4266 12.2748 13.3642C12.1282 13.2789 11.9321 13.2274 11.8359 13.187C11.7326 13.1437 11.6958 12.9331 11.6623 12.7634C11.6279 12.5886 11.5924 12.395 11.5592 11.9517C11.5338 11.6114 11.548 11.0338 11.5297 10.6053C11.5114 10.1767 11.4749 9.91382 11.4561 9.55206C11.4373 9.19029 11.4373 8.73759 11.43 8.48978C11.4198 8.14347 11.3563 8.01363 11.3305 7.91384C11.3239 7.88852 11.3267 7.85874 11.2318 7.8437C10.7285 7.76392 10.5753 7.88751 10.4641 7.91705C10.4191 7.92899 10.3755 7.96119 10.3386 8.00533C10.264 8.09482 10.2722 8.30702 10.2792 8.82953C10.2824 9.06256 10.3531 9.25114 10.3714 9.50814C10.383 9.67082 10.4262 9.89656 10.445 10.2176C10.4638 10.5387 10.4638 10.9476 10.4674 11.1837C10.4735 11.5762 10.574 11.7954 10.6553 11.9657C10.7278 12.1175 10.7439 12.3194 10.7551 12.4562C10.7665 12.5963 10.8178 12.7252 10.8398 12.8325C10.8621 12.9413 10.8988 13.0425 10.9614 13.1495C11.0007 13.2167 10.9946 13.2863 11.0387 13.3157C11.1294 13.3762 11.2377 13.3969 11.33 13.4448C11.4295 13.4965 11.5546 13.4929 11.6506 13.4893C11.7372 13.486 11.3794 13.4266 11.2094 13.3825C10.7661 13.2677 10.2505 13.3527 10.1177 13.3785C10.0741 13.387 10.0151 13.3823 9.97401 13.3677C9.84833 13.323 9.85176 13.1544 9.82588 12.9264C9.81263 12.8097 9.82211 12.6119 9.80021 12.3898C9.7543 11.9245 9.68206 11.6567 9.65639 11.5541C9.63631 11.4739 9.60882 11.3348 9.59377 10.7558C9.57873 10.1769 9.57873 9.16197 9.57508 8.62818C9.57143 8.09439 9.56412 8.07248 9.55306 8.05024C9.50529 7.95423 9.36543 7.89547 9.24728 7.83252C9.19284 7.80352 9.12182 7.80653 9.0446 7.83573C8.82141 7.92015 8.80476 8.21099 8.76382 8.38114C8.70854 8.61092 8.81139 8.73538 8.86317 8.94148C8.90475 9.10703 8.89282 9.51444 8.88917 10.0121C8.88782 10.1957 8.87821 10.2395 8.87445 10.4483C8.86398 11.0293 8.88529 11.435 8.91107 11.4864C8.97815 11.6203 8.96628 11.8397 9.00334 12.0356C9.0361 12.2088 9.0477 12.5459 9.06972 12.7624C9.07917 12.8554 9.11408 12.9539 9.1434 13.0501C9.17571 13.1561 9.25392 13.2416 9.31299 13.3377C9.32698 13.3605 9.34242 13.3819 9.34629 13.4041C9.35389 13.4477 9.32074 13.4927 9.28766 13.5369C9.17676 13.6848 8.84901 13.6328 8.36732 13.6186C8.23885 13.6148 8.19297 13.113 8.06762 12.56C8.01825 12.3421 8.00047 12.2837 7.98941 12.0422C7.98003 11.8374 7.98565 11.4649 7.97834 11.2183C7.96779 10.8616 7.94139 10.5668 7.93774 10.2719C7.9359 10.1227 7.91927 9.82266 7.94117 9.32217C7.96072 8.87565 8.05202 8.53071 8.04837 8.30591C8.04563 8.13669 7.97857 8.02115 7.89017 7.94315C7.78214 7.84783 7.63207 7.88043 7.43327 7.87655C7.38832 7.87568 7.36656 7.88751 7.34432 7.89492C7.30018 7.90963 7.2411 8.07779 7.17849 8.33213C7.14918 8.45115 7.12273 8.82809 7.11543 9.42494C7.10903 9.94808 6.99749 10.1656 6.98632 10.4312C6.98317 10.5062 6.96054 10.5938 6.94948 10.8138C6.9146 11.5077 6.98997 11.6706 7.0267 11.8621C7.06732 12.0739 7.07848 12.2525 7.09684 12.558C7.12732 13.065 7.086 13.4263 7.05292 13.4705C6.97922 13.5688 6.84305 13.596 6.60741 13.5963C6.54744 13.5963 6.50408 13.5744 6.46326 13.5632C6.38657 13.5422 6.34101 13.2159 6.32265 12.678C6.31525 12.4613 6.29698 12.3592 6.28946 11.7772C6.28193 11.1951 6.28193 10.1364 6.26368 9.47417C6.24543 8.81194 6.20892 8.57828 6.19011 8.44332C6.15593 8.19804 6.11245 7.99194 6.08291 7.86593C6.07596 7.83628 6.0682 7.79989 6.04983 7.77378C5.97844 7.67228 5.81065 7.69589 5.63364 7.65917C5.41667 7.61414 5.24997 7.7251 5.15749 7.80619C5.01995 7.92678 5.04287 8.3141 5.09055 8.51014C5.14854 8.74853 5.22696 8.93363 5.28239 9.11141C5.30496 9.18383 5.32299 9.25911 5.38892 9.49696C5.44443 9.6972 5.52788 10.0634 5.57301 10.2916C5.65523 10.7073 5.64028 10.8298 5.66229 10.981C5.69102 11.1781 5.72878 11.2945 5.75445 11.431C5.7782 11.5573 5.82437 11.6706 5.86143 11.8475C5.89383 12.0022 5.935 12.1645 5.97206 12.3528C6.00021 12.4958 5.97969 12.6296 5.9465 12.7549C5.9163 12.869 5.87658 12.9982 5.85789 13.278C5.84777 13.4294 5.78056 13.5881 5.729 13.7138C5.70403 13.7746 5.66262 13.8173 5.61848 13.8431C5.57716 13.8672 5.44955 13.8691 5.28737 13.8581C5.15342 13.8491 5.1243 13.6704 5.05051 13.5634C5.03348 13.5387 5.02827 13.5155 5.02451 13.0588C5.02075 12.6021 5.02075 11.7113 5.0317 11.1977C5.04265 10.684 5.06456 10.5745 5.07584 10.4195C5.10142 10.0681 5.01411 9.67441 4.90348 9.34661C4.79922 9.03769 4.84374 8.90619 4.72636 8.58603C4.61234 8.27503 4.52689 8.20524 4.4531 8.09826C4.393 8.01113 4.33506 7.9176 4.28361 7.85122C4.26084 7.82184 4.21757 7.82865 4.19511 7.8396C4.11488 7.87873 4.1357 8.20966 4.15772 8.40725C4.17942 8.60202 4.16535 8.86814 4.15418 9.25059C4.14934 9.41594 4.09897 9.53192 4.07308 9.62419C4.05817 9.67736 4.06202 9.73128 4.05096 9.9105C4.02327 10.359 4.03989 10.69 4.02883 10.8073C3.99062 11.2123 3.98082 11.3166 3.94044 11.4384C3.89841 11.5652 3.89231 11.8167 3.96942 12.0431C4.00516 12.1481 4.0618 12.2313 4.09134 12.3567C4.11561 12.4596 4.12818 12.5632 4.17608 12.6518C4.22334 12.7392 4.23129 12.8508 4.28671 12.9395C4.33676 13.0195 4.39369 13.0723 4.40486 13.1128C4.42859 13.1988 4.24677 13.1978 4.15816 13.1833C4.07685 13.1391 4.03259 13.0728 4.00682 13.0286C3.99564 13.0064 3.98834 12.9845 3.98082 12.9619" stroke="black" stroke-width="2" stroke-linecap="round"/>
</svg>
