<svg width="15" height="15" viewBox="0 0 15 15" fill="none" xmlns="http://www.w3.org/2000/svg">
<path d="M7.60015 7.00547C9.31231 7.00547 10.7003 5.61749 10.7003 3.90532C10.7003 2.19316 9.31231 0.805176 7.60015 0.805176C5.88798 0.805176 4.5 2.19316 4.5 3.90532C4.5 5.61749 5.88798 7.00547 7.60015 7.00547Z" stroke="#999999" stroke-linecap="round"/>
<path d="M1.26677 11.8314C1.83277 9.75433 3.98162 8.77734 6.134 8.77734H9.06586C11.2182 8.77734 13.3671 9.75433 13.934 11.8314C14.0572 12.2823 14.1446 12.7423 14.1953 13.207C14.2484 13.6942 13.8463 14.0919 13.3573 14.0919H1.84251C1.35358 14.0919 0.952329 13.6933 1.00459 13.2079C1.05521 12.7429 1.14347 12.2826 1.26677 11.8314Z" stroke="#999999" stroke-linecap="round"/>
</svg>
