<svg width="15" height="15" viewBox="0 0 15 15" fill="none" xmlns="http://www.w3.org/2000/svg">
<path d="M7.60015 7.20029C9.31231 7.20029 10.7003 5.81231 10.7003 4.10015C10.7003 2.38798 9.31231 1 7.60015 1C5.88798 1 4.5 2.38798 4.5 4.10015C4.5 5.81231 5.88798 7.20029 7.60015 7.20029Z" stroke="black" stroke-linecap="round"/>
<path d="M1.26677 12.0263C1.83277 9.94916 3.98162 8.97217 6.134 8.97217H9.06586C11.2182 8.97217 13.3671 9.94916 13.934 12.0263C14.0572 12.4772 14.1446 12.9371 14.1953 13.4018C14.2484 13.889 13.8463 14.2867 13.3573 14.2867H1.84251C1.35358 14.2867 0.952329 13.8881 1.00459 13.4027C1.05521 12.9377 1.14347 12.4775 1.26677 12.0263Z" stroke="black" stroke-linecap="round"/>
<path d="M7.60015 7.20029C9.31231 7.20029 10.7003 5.81231 10.7003 4.10015C10.7003 2.38798 9.31231 1 7.60015 1C5.88798 1 4.5 2.38798 4.5 4.10015C4.5 5.81231 5.88798 7.20029 7.60015 7.20029Z" fill="black" stroke="black" stroke-linecap="round"/>
<path d="M1.26677 12.0263C1.83277 9.94916 3.98162 8.97217 6.134 8.97217H9.06586C11.2182 8.97217 13.3671 9.94916 13.934 12.0263C14.0572 12.4772 14.1446 12.9371 14.1953 13.4018C14.2484 13.889 13.8463 14.2867 13.3573 14.2867H1.84251C1.35358 14.2867 0.952329 13.8881 1.00459 13.4027C1.05521 12.9377 1.14347 12.4775 1.26677 12.0263Z" fill="black" stroke="black" stroke-linecap="round"/>
<path d="M7.60015 7.20029C9.31231 7.20029 10.7003 5.81231 10.7003 4.10015C10.7003 2.38798 9.31231 1 7.60015 1C5.88798 1 4.5 2.38798 4.5 4.10015C4.5 5.81231 5.88798 7.20029 7.60015 7.20029Z" fill="black" stroke="black" stroke-linecap="round"/>
<path d="M1.26677 12.0263C1.83277 9.94916 3.98162 8.97217 6.134 8.97217H9.06586C11.2182 8.97217 13.3671 9.94916 13.934 12.0263C14.0572 12.4772 14.1446 12.9371 14.1953 13.4018C14.2484 13.889 13.8463 14.2867 13.3573 14.2867H1.84251C1.35358 14.2867 0.952329 13.8881 1.00459 13.4027C1.05521 12.9377 1.14347 12.4775 1.26677 12.0263Z" fill="black" stroke="black" stroke-linecap="round"/>
</svg>
